<svg id="Layer_1" data-name="Layer 1" xmlns="http://www.w3.org/2000/svg" viewBox="0 0 70.83 100"><defs><style>.cls-1{fill:#58585a;}</style></defs><path class="cls-1" d="M58.33,6.25a6.25,6.25,0,0,0-12.5,0V12.5h12.5Z" transform="translate(-14.58)"/><path class="cls-1" d="M45.83,54.17h12.5V50H68.75a16.67,16.67,0,1,0,0-33.33H38.83a8.37,8.37,0,0,0-5.5-2.09H22.92a8.34,8.34,0,1,0,0,16.67H33.33a8.31,8.31,0,0,0,5.5-2.08H68.75a4.17,4.17,0,1,1,0,8.33H58.33V33.33H45.83V37.5H39.58a16.67,16.67,0,0,0,0,33.33H60.42a4.17,4.17,0,0,1,0,8.34H58.33V75H45.83v4.17H41.67a6.25,6.25,0,0,0,0,12.5h4.16v2.08a5.89,5.89,0,0,0,.38,2.08,5.27,5.27,0,0,0,.37.88,1.87,1.87,0,0,0,.25.41l.21.32a6,6,0,0,0,2.84,2.14.82.82,0,0,0,.35.13,1.69,1.69,0,0,0,.44.12,1.36,1.36,0,0,0,.35.07,5.87,5.87,0,0,0,2.13,0,1.45,1.45,0,0,0,.35-.07,6.17,6.17,0,0,0,3.63-2.39,3.45,3.45,0,0,0,.2-.32,1.33,1.33,0,0,0,.25-.41,5.31,5.31,0,0,0,.38-.88,5.67,5.67,0,0,0,.37-2.08V91.67h2.09a16.67,16.67,0,0,0,0-33.34H39.58a4.17,4.17,0,0,1,0-8.33h6.25ZM22.92,22.92A2.09,2.09,0,1,1,25,20.83,2.1,2.1,0,0,1,22.92,22.92Z" transform="translate(-14.58)"/></svg>